<mxfile host="app.diagrams.net" agent="Mozilla/5.0 (Windows NT 10.0; Win64; x64) AppleWebKit/537.36 (KHTML, like Gecko) Chrome/131.0.0.0 Safari/537.36" version="24.9.3">
  <diagram name="Page-1" id="9zU1XtcvFFmWDy-jE5Oj">
    <mxGraphModel dx="1850" dy="497" grid="1" gridSize="10" guides="1" tooltips="1" connect="1" arrows="1" fold="1" page="1" pageScale="1" pageWidth="850" pageHeight="1100" math="0" shadow="0">
      <root>
        <mxCell id="0" />
        <mxCell id="1" parent="0" />
        <mxCell id="nbwgBH8t1MGItFkAhuZ3-1" value="User" style="swimlane;fontStyle=1;align=center;verticalAlign=top;childLayout=stackLayout;horizontal=1;startSize=26;horizontalStack=0;resizeParent=1;resizeParentMax=0;resizeLast=0;collapsible=1;marginBottom=0;whiteSpace=wrap;html=1;" parent="1" vertex="1">
          <mxGeometry x="200" y="50" width="560" height="450" as="geometry">
            <mxRectangle x="310" y="150" width="60" height="30" as="alternateBounds" />
          </mxGeometry>
        </mxCell>
        <mxCell id="nbwgBH8t1MGItFkAhuZ3-2" value="&lt;div&gt;&lt;br&gt;&lt;/div&gt;&lt;div&gt;- creditCard: CreditCard&lt;br&gt;&lt;/div&gt;&lt;div&gt;- favoriteGenres: String[]&lt;/div&gt;&lt;div&gt;- history: String[]&lt;/div&gt;&lt;div&gt;- subscriptionPlan: Subscription&lt;/div&gt;&lt;div&gt;- watchLater: String[]&lt;/div&gt;&lt;div style=&quot;display:none&quot; id=&quot;SDCloudData&quot;&gt;&lt;br&gt;&lt;/div&gt;" style="text;strokeColor=none;fillColor=none;align=left;verticalAlign=top;spacingLeft=4;spacingRight=4;overflow=hidden;rotatable=0;points=[[0,0.5],[1,0.5]];portConstraint=eastwest;whiteSpace=wrap;html=1;" parent="nbwgBH8t1MGItFkAhuZ3-1" vertex="1">
          <mxGeometry y="26" width="560" height="164" as="geometry" />
        </mxCell>
        <mxCell id="nbwgBH8t1MGItFkAhuZ3-3" value="" style="line;strokeWidth=1;fillColor=none;align=left;verticalAlign=middle;spacingTop=-1;spacingLeft=3;spacingRight=3;rotatable=0;labelPosition=right;points=[];portConstraint=eastwest;strokeColor=inherit;" parent="nbwgBH8t1MGItFkAhuZ3-1" vertex="1">
          <mxGeometry y="190" width="560" height="8" as="geometry" />
        </mxCell>
        <mxCell id="nbwgBH8t1MGItFkAhuZ3-4" value="&lt;div&gt;+User(firstName: String, lastName: String, userName: String, email: String, password: String, ID: long, creditCard: CreditCard, favoriteGenres: String[], subscriptionPlan: String, history: String[])&lt;/div&gt;&lt;div&gt;+getName(): String&lt;/div&gt;&lt;div&gt;+getID(): long&lt;/div&gt;&lt;div&gt;+getCreditCard(): CreditCard&lt;br&gt;&lt;/div&gt;&lt;div&gt;+getEmail(): String&lt;/div&gt;&lt;div&gt;+getGenres(): String[]&lt;/div&gt;&lt;div&gt;+getHistory(): String[]&lt;/div&gt;&lt;div&gt;+getPlan(): String&lt;br&gt;&lt;/div&gt;&lt;div&gt;+setPlan(subscriptionPlan: Subscription): void&lt;br&gt;&lt;/div&gt;&lt;div&gt;+changePassword(oldPassword: String, newPassword: String): void&lt;br&gt;&lt;/div&gt;&lt;div&gt;+addGenre(Genre: String): void&lt;/div&gt;&lt;div&gt;+watched(movie: String): void&lt;/div&gt;&lt;div&gt;+removeHistory(movie: String): void&lt;/div&gt;&lt;div&gt;+addWatchLater(movie: String): void&lt;br&gt;&lt;/div&gt;&lt;div&gt;+ search(operation: int, name: String): void&lt;/div&gt;&lt;div&gt;&lt;br&gt;&lt;/div&gt;" style="text;strokeColor=none;fillColor=none;align=left;verticalAlign=top;spacingLeft=4;spacingRight=4;overflow=hidden;rotatable=0;points=[[0,0.5],[1,0.5]];portConstraint=eastwest;whiteSpace=wrap;html=1;" parent="nbwgBH8t1MGItFkAhuZ3-1" vertex="1">
          <mxGeometry y="198" width="560" height="252" as="geometry" />
        </mxCell>
        <mxCell id="nbwgBH8t1MGItFkAhuZ3-7" value="Subscription" style="swimlane;fontStyle=1;align=center;verticalAlign=top;childLayout=stackLayout;horizontal=1;startSize=26;horizontalStack=0;resizeParent=1;resizeParentMax=0;resizeLast=0;collapsible=1;marginBottom=0;whiteSpace=wrap;html=1;" parent="1" vertex="1">
          <mxGeometry x="-380" y="50" width="460" height="160" as="geometry" />
        </mxCell>
        <mxCell id="nbwgBH8t1MGItFkAhuZ3-8" value="&lt;div&gt;-userID: long&lt;/div&gt;&lt;div&gt;+plan: String&lt;/div&gt;&lt;div&gt;+price: int&lt;/div&gt;&lt;div&gt;+startDate: Date&lt;/div&gt;&lt;div&gt;+;endDate: Date&lt;br&gt;&lt;/div&gt;" style="text;strokeColor=none;fillColor=none;align=left;verticalAlign=top;spacingLeft=4;spacingRight=4;overflow=hidden;rotatable=0;points=[[0,0.5],[1,0.5]];portConstraint=eastwest;whiteSpace=wrap;html=1;" parent="nbwgBH8t1MGItFkAhuZ3-7" vertex="1">
          <mxGeometry y="26" width="460" height="84" as="geometry" />
        </mxCell>
        <mxCell id="nbwgBH8t1MGItFkAhuZ3-9" value="" style="line;strokeWidth=1;fillColor=none;align=left;verticalAlign=middle;spacingTop=-1;spacingLeft=3;spacingRight=3;rotatable=0;labelPosition=right;points=[];portConstraint=eastwest;strokeColor=inherit;" parent="nbwgBH8t1MGItFkAhuZ3-7" vertex="1">
          <mxGeometry y="110" width="460" height="8" as="geometry" />
        </mxCell>
        <mxCell id="nbwgBH8t1MGItFkAhuZ3-10" value="&lt;div&gt;+Subscriptoin(userID: long, plan: String, price: int, startDate: Date, endDate: Date) &lt;br&gt;&lt;/div&gt;&lt;div&gt;+getUserID(): long&lt;/div&gt;" style="text;strokeColor=none;fillColor=none;align=left;verticalAlign=top;spacingLeft=4;spacingRight=4;overflow=hidden;rotatable=0;points=[[0,0.5],[1,0.5]];portConstraint=eastwest;whiteSpace=wrap;html=1;" parent="nbwgBH8t1MGItFkAhuZ3-7" vertex="1">
          <mxGeometry y="118" width="460" height="42" as="geometry" />
        </mxCell>
        <mxCell id="nbwgBH8t1MGItFkAhuZ3-23" value="1" style="endArrow=open;html=1;endSize=12;startArrow=diamondThin;startSize=14;startFill=1;edgeStyle=orthogonalEdgeStyle;align=left;verticalAlign=bottom;rounded=0;entryX=1.004;entryY=0.069;entryDx=0;entryDy=0;entryPerimeter=0;exitX=0;exitY=0.841;exitDx=0;exitDy=0;exitPerimeter=0;" parent="1" source="nbwgBH8t1MGItFkAhuZ3-2" target="nbwgBH8t1MGItFkAhuZ3-7" edge="1">
          <mxGeometry x="-1" y="3" relative="1" as="geometry">
            <mxPoint x="210.12" y="110" as="sourcePoint" />
            <mxPoint x="80.00000000000011" y="60.08000000000004" as="targetPoint" />
          </mxGeometry>
        </mxCell>
        <mxCell id="nbwgBH8t1MGItFkAhuZ3-25" value="Movie" style="swimlane;fontStyle=1;align=center;verticalAlign=top;childLayout=stackLayout;horizontal=1;startSize=26;horizontalStack=0;resizeParent=1;resizeParentMax=0;resizeLast=0;collapsible=1;marginBottom=0;whiteSpace=wrap;html=1;" parent="1" vertex="1">
          <mxGeometry x="-830" y="710" width="410" height="158" as="geometry" />
        </mxCell>
        <mxCell id="nbwgBH8t1MGItFkAhuZ3-26" value="&lt;div&gt;&lt;span style=&quot;background-color: initial;&quot;&gt;+Duration: int&lt;/span&gt;&lt;/div&gt;&lt;div&gt;&lt;br&gt;&lt;/div&gt;" style="text;strokeColor=none;fillColor=none;align=left;verticalAlign=top;spacingLeft=4;spacingRight=4;overflow=hidden;rotatable=0;points=[[0,0.5],[1,0.5]];portConstraint=eastwest;whiteSpace=wrap;html=1;" parent="nbwgBH8t1MGItFkAhuZ3-25" vertex="1">
          <mxGeometry y="26" width="410" height="44" as="geometry" />
        </mxCell>
        <mxCell id="nbwgBH8t1MGItFkAhuZ3-27" value="" style="line;strokeWidth=1;fillColor=none;align=left;verticalAlign=middle;spacingTop=-1;spacingLeft=3;spacingRight=3;rotatable=0;labelPosition=right;points=[];portConstraint=eastwest;strokeColor=inherit;" parent="nbwgBH8t1MGItFkAhuZ3-25" vertex="1">
          <mxGeometry y="70" width="410" height="8" as="geometry" />
        </mxCell>
        <mxCell id="nbwgBH8t1MGItFkAhuZ3-28" value="&lt;div&gt;+Movie(movieID: String, movieTitle: String, releaseDate: Date, Duration: int, cast: CastMember[], genres: String[], director: Director, language: String, country: String, budget: int, revenue: int, poster: image)&lt;/div&gt;&lt;div&gt;&lt;br&gt;&lt;/div&gt;" style="text;strokeColor=none;fillColor=none;align=left;verticalAlign=top;spacingLeft=4;spacingRight=4;overflow=hidden;rotatable=0;points=[[0,0.5],[1,0.5]];portConstraint=eastwest;whiteSpace=wrap;html=1;" parent="nbwgBH8t1MGItFkAhuZ3-25" vertex="1">
          <mxGeometry y="78" width="410" height="80" as="geometry" />
        </mxCell>
        <mxCell id="7Ozxp1BlVFNVMCUP24Y6-1" value="CastMember" style="swimlane;fontStyle=1;align=center;verticalAlign=top;childLayout=stackLayout;horizontal=1;startSize=26;horizontalStack=0;resizeParent=1;resizeParentMax=0;resizeLast=0;collapsible=1;marginBottom=0;whiteSpace=wrap;html=1;" parent="1" vertex="1">
          <mxGeometry x="-40" y="320" width="160" height="310" as="geometry" />
        </mxCell>
        <mxCell id="7Ozxp1BlVFNVMCUP24Y6-2" value="+ firstName: String&lt;div&gt;+ lastName: String&lt;/div&gt;&lt;div&gt;+ dateOfbirth: Date&lt;/div&gt;&lt;div&gt;+ gender: String&lt;/div&gt;&lt;div&gt;+ movies: String[]&lt;/div&gt;&lt;div&gt;+ nationality: String&lt;/div&gt;&lt;div&gt;+ socialMediaLink: String&lt;/div&gt;&lt;div&gt;&lt;br&gt;&lt;/div&gt;" style="text;strokeColor=none;fillColor=none;align=left;verticalAlign=top;spacingLeft=4;spacingRight=4;overflow=hidden;rotatable=0;points=[[0,0.5],[1,0.5]];portConstraint=eastwest;whiteSpace=wrap;html=1;" parent="7Ozxp1BlVFNVMCUP24Y6-1" vertex="1">
          <mxGeometry y="26" width="160" height="164" as="geometry" />
        </mxCell>
        <mxCell id="7Ozxp1BlVFNVMCUP24Y6-3" value="" style="line;strokeWidth=1;fillColor=none;align=left;verticalAlign=middle;spacingTop=-1;spacingLeft=3;spacingRight=3;rotatable=0;labelPosition=right;points=[];portConstraint=eastwest;strokeColor=inherit;" parent="7Ozxp1BlVFNVMCUP24Y6-1" vertex="1">
          <mxGeometry y="190" width="160" height="8" as="geometry" />
        </mxCell>
        <mxCell id="7Ozxp1BlVFNVMCUP24Y6-4" value="+ CastMember(firstName: String, lastName: String, dateOfBirth: Date, gender: String, movies: String[], nationality: String, socialMediaLink: String)&lt;div&gt;+ joinMovie(movie: String)&lt;br&gt;&lt;div&gt;&lt;br&gt;&lt;/div&gt;&lt;/div&gt;" style="text;strokeColor=none;fillColor=none;align=left;verticalAlign=top;spacingLeft=4;spacingRight=4;overflow=hidden;rotatable=0;points=[[0,0.5],[1,0.5]];portConstraint=eastwest;whiteSpace=wrap;html=1;" parent="7Ozxp1BlVFNVMCUP24Y6-1" vertex="1">
          <mxGeometry y="198" width="160" height="112" as="geometry" />
        </mxCell>
        <mxCell id="7Ozxp1BlVFNVMCUP24Y6-5" value="Director" style="swimlane;fontStyle=1;align=center;verticalAlign=top;childLayout=stackLayout;horizontal=1;startSize=26;horizontalStack=0;resizeParent=1;resizeParentMax=0;resizeLast=0;collapsible=1;marginBottom=0;whiteSpace=wrap;html=1;" parent="1" vertex="1">
          <mxGeometry x="-50" y="780" width="160" height="300" as="geometry" />
        </mxCell>
        <mxCell id="7Ozxp1BlVFNVMCUP24Y6-6" value="+ firstName: String&lt;div&gt;+ lastName: String&lt;/div&gt;&lt;div&gt;+ dateOfBirth: Date&lt;/div&gt;&lt;div&gt;+ gender: String&lt;/div&gt;&lt;div&gt;+ movies: Movie[]&lt;/div&gt;&lt;div&gt;+ nationality: String&lt;/div&gt;&lt;div&gt;+ socialMediaLink: String&lt;/div&gt;" style="text;strokeColor=none;fillColor=none;align=left;verticalAlign=top;spacingLeft=4;spacingRight=4;overflow=hidden;rotatable=0;points=[[0,0.5],[1,0.5]];portConstraint=eastwest;whiteSpace=wrap;html=1;" parent="7Ozxp1BlVFNVMCUP24Y6-5" vertex="1">
          <mxGeometry y="26" width="160" height="164" as="geometry" />
        </mxCell>
        <mxCell id="7Ozxp1BlVFNVMCUP24Y6-7" value="" style="line;strokeWidth=1;fillColor=none;align=left;verticalAlign=middle;spacingTop=-1;spacingLeft=3;spacingRight=3;rotatable=0;labelPosition=right;points=[];portConstraint=eastwest;strokeColor=inherit;" parent="7Ozxp1BlVFNVMCUP24Y6-5" vertex="1">
          <mxGeometry y="190" width="160" height="8" as="geometry" />
        </mxCell>
        <mxCell id="7Ozxp1BlVFNVMCUP24Y6-8" value="+ Director(firstName: String, lastName: String, dateOfBirth: Date, gender: String, movies: String[], nationality: String, socialMediaLink: String)&lt;div&gt;&lt;br&gt;&lt;/div&gt;" style="text;strokeColor=none;fillColor=none;align=left;verticalAlign=top;spacingLeft=4;spacingRight=4;overflow=hidden;rotatable=0;points=[[0,0.5],[1,0.5]];portConstraint=eastwest;whiteSpace=wrap;html=1;" parent="7Ozxp1BlVFNVMCUP24Y6-5" vertex="1">
          <mxGeometry y="198" width="160" height="102" as="geometry" />
        </mxCell>
        <mxCell id="7Ozxp1BlVFNVMCUP24Y6-12" value="UserWatchRecord" style="swimlane;fontStyle=1;align=center;verticalAlign=top;childLayout=stackLayout;horizontal=1;startSize=26;horizontalStack=0;resizeParent=1;resizeParentMax=0;resizeLast=0;collapsible=1;marginBottom=0;whiteSpace=wrap;html=1;" parent="1" vertex="1">
          <mxGeometry x="640" y="920" width="160" height="230" as="geometry" />
        </mxCell>
        <mxCell id="7Ozxp1BlVFNVMCUP24Y6-13" value="+ userID: String&lt;div&gt;+ Movie: String&lt;/div&gt;&lt;div&gt;+ dateOfWatching: Date&lt;/div&gt;&lt;div&gt;+ Rating: float&lt;/div&gt;" style="text;strokeColor=none;fillColor=none;align=left;verticalAlign=top;spacingLeft=4;spacingRight=4;overflow=hidden;rotatable=0;points=[[0,0.5],[1,0.5]];portConstraint=eastwest;whiteSpace=wrap;html=1;" parent="7Ozxp1BlVFNVMCUP24Y6-12" vertex="1">
          <mxGeometry y="26" width="160" height="124" as="geometry" />
        </mxCell>
        <mxCell id="7Ozxp1BlVFNVMCUP24Y6-14" value="" style="line;strokeWidth=1;fillColor=none;align=left;verticalAlign=middle;spacingTop=-1;spacingLeft=3;spacingRight=3;rotatable=0;labelPosition=right;points=[];portConstraint=eastwest;strokeColor=inherit;" parent="7Ozxp1BlVFNVMCUP24Y6-12" vertex="1">
          <mxGeometry y="150" width="160" height="8" as="geometry" />
        </mxCell>
        <mxCell id="7Ozxp1BlVFNVMCUP24Y6-15" value="+UserWatchRecord(userID: String, Movie: String, dateOfWatching: Date, Rating: float)" style="text;strokeColor=none;fillColor=none;align=left;verticalAlign=top;spacingLeft=4;spacingRight=4;overflow=hidden;rotatable=0;points=[[0,0.5],[1,0.5]];portConstraint=eastwest;whiteSpace=wrap;html=1;" parent="7Ozxp1BlVFNVMCUP24Y6-12" vertex="1">
          <mxGeometry y="158" width="160" height="72" as="geometry" />
        </mxCell>
        <mxCell id="7Ozxp1BlVFNVMCUP24Y6-16" value="Account" style="swimlane;fontStyle=1;align=center;verticalAlign=top;childLayout=stackLayout;horizontal=1;startSize=26;horizontalStack=0;resizeParent=1;resizeParentMax=0;resizeLast=0;collapsible=1;marginBottom=0;whiteSpace=wrap;html=1;" parent="1" vertex="1">
          <mxGeometry x="230" y="660" width="160" height="240" as="geometry" />
        </mxCell>
        <mxCell id="7Ozxp1BlVFNVMCUP24Y6-17" value="+ userName: String&lt;div&gt;+ userID: long&lt;/div&gt;&lt;div&gt;+ firstName: String&lt;/div&gt;&lt;div&gt;+ lastName: String&lt;/div&gt;&lt;div&gt;+ password: String&lt;/div&gt;&lt;div&gt;+ email: String&lt;/div&gt;" style="text;strokeColor=none;fillColor=none;align=left;verticalAlign=top;spacingLeft=4;spacingRight=4;overflow=hidden;rotatable=0;points=[[0,0.5],[1,0.5]];portConstraint=eastwest;whiteSpace=wrap;html=1;" parent="7Ozxp1BlVFNVMCUP24Y6-16" vertex="1">
          <mxGeometry y="26" width="160" height="104" as="geometry" />
        </mxCell>
        <mxCell id="7Ozxp1BlVFNVMCUP24Y6-18" value="" style="line;strokeWidth=1;fillColor=none;align=left;verticalAlign=middle;spacingTop=-1;spacingLeft=3;spacingRight=3;rotatable=0;labelPosition=right;points=[];portConstraint=eastwest;strokeColor=inherit;" parent="7Ozxp1BlVFNVMCUP24Y6-16" vertex="1">
          <mxGeometry y="130" width="160" height="8" as="geometry" />
        </mxCell>
        <mxCell id="7Ozxp1BlVFNVMCUP24Y6-19" value="Account(userName: String, userID: long, firstName: String, lastName: String, password: String, email: String)" style="text;strokeColor=none;fillColor=none;align=left;verticalAlign=top;spacingLeft=4;spacingRight=4;overflow=hidden;rotatable=0;points=[[0,0.5],[1,0.5]];portConstraint=eastwest;whiteSpace=wrap;html=1;" parent="7Ozxp1BlVFNVMCUP24Y6-16" vertex="1">
          <mxGeometry y="138" width="160" height="102" as="geometry" />
        </mxCell>
        <mxCell id="7Ozxp1BlVFNVMCUP24Y6-20" value="Admin" style="swimlane;fontStyle=1;align=center;verticalAlign=top;childLayout=stackLayout;horizontal=1;startSize=26;horizontalStack=0;resizeParent=1;resizeParentMax=0;resizeLast=0;collapsible=1;marginBottom=0;whiteSpace=wrap;html=1;" parent="1" vertex="1">
          <mxGeometry x="580" y="530" width="160" height="290" as="geometry" />
        </mxCell>
        <mxCell id="7Ozxp1BlVFNVMCUP24Y6-22" value="" style="line;strokeWidth=1;fillColor=none;align=left;verticalAlign=middle;spacingTop=-1;spacingLeft=3;spacingRight=3;rotatable=0;labelPosition=right;points=[];portConstraint=eastwest;strokeColor=inherit;" parent="7Ozxp1BlVFNVMCUP24Y6-20" vertex="1">
          <mxGeometry y="26" width="160" height="8" as="geometry" />
        </mxCell>
        <mxCell id="7Ozxp1BlVFNVMCUP24Y6-23" value="+ Admin()&lt;div&gt;+ editUser(userID: long, user: User): void&lt;/div&gt;&lt;div&gt;+ deleteUser(userID: long): void&lt;/div&gt;&lt;div&gt;+ addMovie(movie: Movie): void&lt;/div&gt;&lt;div&gt;+ deleteMovie(movie: String): void&lt;/div&gt;&lt;div&gt;+ calculateRevenue(): long&lt;/div&gt;&lt;div&gt;+ plansAnalysis(): String&amp;nbsp;&lt;/div&gt;" style="text;strokeColor=none;fillColor=none;align=left;verticalAlign=top;spacingLeft=4;spacingRight=4;overflow=hidden;rotatable=0;points=[[0,0.5],[1,0.5]];portConstraint=eastwest;whiteSpace=wrap;html=1;" parent="7Ozxp1BlVFNVMCUP24Y6-20" vertex="1">
          <mxGeometry y="34" width="160" height="256" as="geometry" />
        </mxCell>
        <mxCell id="EzwCkaY9uYodPQmVns6a-1" value="Content" style="swimlane;fontStyle=1;align=center;verticalAlign=top;childLayout=stackLayout;horizontal=1;startSize=26;horizontalStack=0;resizeParent=1;resizeParentMax=0;resizeLast=0;collapsible=1;marginBottom=0;whiteSpace=wrap;html=1;" parent="1" vertex="1">
          <mxGeometry x="-630" y="220" width="390" height="360" as="geometry" />
        </mxCell>
        <mxCell id="EzwCkaY9uYodPQmVns6a-2" value="&lt;div style=&quot;forced-color-adjust: none; color: rgb(0, 0, 0); font-family: Helvetica; font-size: 12px; font-style: normal; font-variant-ligatures: normal; font-variant-caps: normal; font-weight: 400; letter-spacing: normal; orphans: 2; text-align: left; text-indent: 0px; text-transform: none; widows: 2; word-spacing: 0px; -webkit-text-stroke-width: 0px; white-space: normal; background-color: rgb(251, 251, 251); text-decoration-thickness: initial; text-decoration-style: initial; text-decoration-color: initial;&quot;&gt;+contentID: String&lt;/div&gt;&lt;div style=&quot;forced-color-adjust: none; color: rgb(0, 0, 0); font-family: Helvetica; font-size: 12px; font-style: normal; font-variant-ligatures: normal; font-variant-caps: normal; font-weight: 400; letter-spacing: normal; orphans: 2; text-align: left; text-indent: 0px; text-transform: none; widows: 2; word-spacing: 0px; -webkit-text-stroke-width: 0px; white-space: normal; background-color: rgb(251, 251, 251); text-decoration-thickness: initial; text-decoration-style: initial; text-decoration-color: initial;&quot;&gt;+contentTitle: String&lt;/div&gt;&lt;div style=&quot;forced-color-adjust: none; color: rgb(0, 0, 0); font-family: Helvetica; font-size: 12px; font-style: normal; font-variant-ligatures: normal; font-variant-caps: normal; font-weight: 400; letter-spacing: normal; orphans: 2; text-align: left; text-indent: 0px; text-transform: none; widows: 2; word-spacing: 0px; -webkit-text-stroke-width: 0px; white-space: normal; background-color: rgb(251, 251, 251); text-decoration-thickness: initial; text-decoration-style: initial; text-decoration-color: initial;&quot;&gt;+releaseDate: Date&lt;/div&gt;&lt;div style=&quot;forced-color-adjust: none; color: rgb(0, 0, 0); font-family: Helvetica; font-size: 12px; font-style: normal; font-variant-ligatures: normal; font-variant-caps: normal; font-weight: 400; letter-spacing: normal; orphans: 2; text-align: left; text-indent: 0px; text-transform: none; widows: 2; word-spacing: 0px; -webkit-text-stroke-width: 0px; white-space: normal; background-color: rgb(251, 251, 251); text-decoration-thickness: initial; text-decoration-style: initial; text-decoration-color: initial;&quot;&gt;+cast: CastMember[]&lt;/div&gt;&lt;div style=&quot;forced-color-adjust: none; color: rgb(0, 0, 0); font-family: Helvetica; font-size: 12px; font-style: normal; font-variant-ligatures: normal; font-variant-caps: normal; font-weight: 400; letter-spacing: normal; orphans: 2; text-align: left; text-indent: 0px; text-transform: none; widows: 2; word-spacing: 0px; -webkit-text-stroke-width: 0px; white-space: normal; background-color: rgb(251, 251, 251); text-decoration-thickness: initial; text-decoration-style: initial; text-decoration-color: initial;&quot;&gt;+genres: String[]&lt;/div&gt;&lt;div style=&quot;forced-color-adjust: none; color: rgb(0, 0, 0); font-family: Helvetica; font-size: 12px; font-style: normal; font-variant-ligatures: normal; font-variant-caps: normal; font-weight: 400; letter-spacing: normal; orphans: 2; text-align: left; text-indent: 0px; text-transform: none; widows: 2; word-spacing: 0px; -webkit-text-stroke-width: 0px; white-space: normal; background-color: rgb(251, 251, 251); text-decoration-thickness: initial; text-decoration-style: initial; text-decoration-color: initial;&quot;&gt;+director: Director&lt;/div&gt;&lt;div style=&quot;forced-color-adjust: none; color: rgb(0, 0, 0); font-family: Helvetica; font-size: 12px; font-style: normal; font-variant-ligatures: normal; font-variant-caps: normal; font-weight: 400; letter-spacing: normal; orphans: 2; text-align: left; text-indent: 0px; text-transform: none; widows: 2; word-spacing: 0px; -webkit-text-stroke-width: 0px; white-space: normal; background-color: rgb(251, 251, 251); text-decoration-thickness: initial; text-decoration-style: initial; text-decoration-color: initial;&quot;&gt;+language: String&lt;/div&gt;&lt;div style=&quot;forced-color-adjust: none; color: rgb(0, 0, 0); font-family: Helvetica; font-size: 12px; font-style: normal; font-variant-ligatures: normal; font-variant-caps: normal; font-weight: 400; letter-spacing: normal; orphans: 2; text-align: left; text-indent: 0px; text-transform: none; widows: 2; word-spacing: 0px; -webkit-text-stroke-width: 0px; white-space: normal; background-color: rgb(251, 251, 251); text-decoration-thickness: initial; text-decoration-style: initial; text-decoration-color: initial;&quot;&gt;+country: String&lt;/div&gt;&lt;div style=&quot;forced-color-adjust: none; color: rgb(0, 0, 0); font-family: Helvetica; font-size: 12px; font-style: normal; font-variant-ligatures: normal; font-variant-caps: normal; font-weight: 400; letter-spacing: normal; orphans: 2; text-align: left; text-indent: 0px; text-transform: none; widows: 2; word-spacing: 0px; -webkit-text-stroke-width: 0px; white-space: normal; background-color: rgb(251, 251, 251); text-decoration-thickness: initial; text-decoration-style: initial; text-decoration-color: initial;&quot;&gt;+budget: int&lt;/div&gt;&lt;div style=&quot;forced-color-adjust: none; color: rgb(0, 0, 0); font-family: Helvetica; font-size: 12px; font-style: normal; font-variant-ligatures: normal; font-variant-caps: normal; font-weight: 400; letter-spacing: normal; orphans: 2; text-align: left; text-indent: 0px; text-transform: none; widows: 2; word-spacing: 0px; -webkit-text-stroke-width: 0px; white-space: normal; background-color: rgb(251, 251, 251); text-decoration-thickness: initial; text-decoration-style: initial; text-decoration-color: initial;&quot;&gt;+revenue: int&lt;/div&gt;&lt;div style=&quot;forced-color-adjust: none; color: rgb(0, 0, 0); font-family: Helvetica; font-size: 12px; font-style: normal; font-variant-ligatures: normal; font-variant-caps: normal; font-weight: 400; letter-spacing: normal; orphans: 2; text-align: left; text-indent: 0px; text-transform: none; widows: 2; word-spacing: 0px; -webkit-text-stroke-width: 0px; white-space: normal; background-color: rgb(251, 251, 251); text-decoration-thickness: initial; text-decoration-style: initial; text-decoration-color: initial;&quot;&gt;+ poster: Image&lt;/div&gt;&lt;div style=&quot;forced-color-adjust: none; color: rgb(0, 0, 0); font-family: Helvetica; font-size: 12px; font-style: normal; font-variant-ligatures: normal; font-variant-caps: normal; font-weight: 400; letter-spacing: normal; orphans: 2; text-align: left; text-indent: 0px; text-transform: none; widows: 2; word-spacing: 0px; -webkit-text-stroke-width: 0px; white-space: normal; background-color: rgb(251, 251, 251); text-decoration-thickness: initial; text-decoration-style: initial; text-decoration-color: initial;&quot;&gt;+rating: float[]&lt;/div&gt;&lt;div&gt;&lt;br&gt;&lt;/div&gt;" style="text;strokeColor=none;fillColor=none;align=left;verticalAlign=top;spacingLeft=4;spacingRight=4;overflow=hidden;rotatable=0;points=[[0,0.5],[1,0.5]];portConstraint=eastwest;whiteSpace=wrap;html=1;" parent="EzwCkaY9uYodPQmVns6a-1" vertex="1">
          <mxGeometry y="26" width="390" height="224" as="geometry" />
        </mxCell>
        <mxCell id="EzwCkaY9uYodPQmVns6a-3" value="" style="line;strokeWidth=1;fillColor=none;align=left;verticalAlign=middle;spacingTop=-1;spacingLeft=3;spacingRight=3;rotatable=0;labelPosition=right;points=[];portConstraint=eastwest;strokeColor=inherit;" parent="EzwCkaY9uYodPQmVns6a-1" vertex="1">
          <mxGeometry y="250" width="390" height="8" as="geometry" />
        </mxCell>
        <mxCell id="EzwCkaY9uYodPQmVns6a-11" value="&lt;div&gt;+Content(contentID: String, contentTitle: String, releaseDate: Date, cast: CastMember[], genres: String[], director: Director, language: String, country: String, budget: int, revenue: int, poster: image, rating: float[])&lt;/div&gt;&lt;div&gt;+RateContent(contentID: int, rate: float):void&lt;/div&gt;&lt;div&gt;+GetRate(contentID: int): float&lt;/div&gt;" style="text;strokeColor=none;fillColor=none;align=left;verticalAlign=top;spacingLeft=4;spacingRight=4;overflow=hidden;rotatable=0;points=[[0,0.5],[1,0.5]];portConstraint=eastwest;whiteSpace=wrap;html=1;" parent="EzwCkaY9uYodPQmVns6a-1" vertex="1">
          <mxGeometry y="258" width="390" height="102" as="geometry" />
        </mxCell>
        <mxCell id="EzwCkaY9uYodPQmVns6a-5" value="Series" style="swimlane;fontStyle=1;align=center;verticalAlign=top;childLayout=stackLayout;horizontal=1;startSize=26;horizontalStack=0;resizeParent=1;resizeParentMax=0;resizeLast=0;collapsible=1;marginBottom=0;whiteSpace=wrap;html=1;" parent="1" vertex="1">
          <mxGeometry x="-390" y="710" width="260" height="282" as="geometry" />
        </mxCell>
        <mxCell id="EzwCkaY9uYodPQmVns6a-6" value="+ numberOfEpisodes: int&lt;div&gt;+ durationOfEpisode: int&lt;br&gt;+ numberOfSeasons: int&lt;/div&gt;&lt;div&gt;+ firstAirDate: Date&lt;/div&gt;&lt;div&gt;+ lastAirDate: Date&lt;/div&gt;&lt;div&gt;+ ongoing: boolean&lt;/div&gt;" style="text;strokeColor=none;fillColor=none;align=left;verticalAlign=top;spacingLeft=4;spacingRight=4;overflow=hidden;rotatable=0;points=[[0,0.5],[1,0.5]];portConstraint=eastwest;whiteSpace=wrap;html=1;" parent="EzwCkaY9uYodPQmVns6a-5" vertex="1">
          <mxGeometry y="26" width="260" height="104" as="geometry" />
        </mxCell>
        <mxCell id="EzwCkaY9uYodPQmVns6a-7" value="" style="line;strokeWidth=1;fillColor=none;align=left;verticalAlign=middle;spacingTop=-1;spacingLeft=3;spacingRight=3;rotatable=0;labelPosition=right;points=[];portConstraint=eastwest;strokeColor=inherit;" parent="EzwCkaY9uYodPQmVns6a-5" vertex="1">
          <mxGeometry y="130" width="260" height="10" as="geometry" />
        </mxCell>
        <mxCell id="EzwCkaY9uYodPQmVns6a-9" value="&lt;div&gt;+Series(seriesID: String, seriesTitle: String, releaseDate: Date, cast: CastMember[], genres: String[], director: Director, language: String, country: String, budget: int, revenue: int, poster: image, durationOfEpisode: int, numberOfEpisodes: int, numberOfSeasons: int, firstAirDate: Date, lastAirDate: Date, ongoing: boolean)&lt;/div&gt;&lt;div&gt;&lt;br&gt;&lt;/div&gt;" style="text;strokeColor=none;fillColor=none;align=left;verticalAlign=top;spacingLeft=4;spacingRight=4;overflow=hidden;rotatable=0;points=[[0,0.5],[1,0.5]];portConstraint=eastwest;whiteSpace=wrap;html=1;" parent="EzwCkaY9uYodPQmVns6a-5" vertex="1">
          <mxGeometry y="140" width="260" height="142" as="geometry" />
        </mxCell>
        <mxCell id="EzwCkaY9uYodPQmVns6a-13" value="" style="endArrow=none;html=1;rounded=0;exitX=0.51;exitY=-0.004;exitDx=0;exitDy=0;exitPerimeter=0;" parent="1" source="nbwgBH8t1MGItFkAhuZ3-25" edge="1">
          <mxGeometry width="50" height="50" relative="1" as="geometry">
            <mxPoint x="-627.6099999999999" y="710" as="sourcePoint" />
            <mxPoint x="-620" y="630" as="targetPoint" />
          </mxGeometry>
        </mxCell>
        <mxCell id="EzwCkaY9uYodPQmVns6a-14" value="" style="endArrow=none;html=1;rounded=0;" parent="1" edge="1">
          <mxGeometry width="50" height="50" relative="1" as="geometry">
            <mxPoint x="-260.42999999999995" y="710" as="sourcePoint" />
            <mxPoint x="-260" y="630" as="targetPoint" />
          </mxGeometry>
        </mxCell>
        <mxCell id="EzwCkaY9uYodPQmVns6a-15" value="" style="endArrow=none;html=1;rounded=0;" parent="1" edge="1">
          <mxGeometry width="50" height="50" relative="1" as="geometry">
            <mxPoint x="-620" y="630" as="sourcePoint" />
            <mxPoint x="-260" y="630" as="targetPoint" />
          </mxGeometry>
        </mxCell>
        <mxCell id="EzwCkaY9uYodPQmVns6a-16" value="" style="endArrow=classic;html=1;rounded=0;" parent="1" edge="1">
          <mxGeometry width="50" height="50" relative="1" as="geometry">
            <mxPoint x="-440" y="630" as="sourcePoint" />
            <mxPoint x="-440" y="580" as="targetPoint" />
          </mxGeometry>
        </mxCell>
        <mxCell id="EzwCkaY9uYodPQmVns6a-17" value="Episode" style="swimlane;fontStyle=1;align=center;verticalAlign=top;childLayout=stackLayout;horizontal=1;startSize=26;horizontalStack=0;resizeParent=1;resizeParentMax=0;resizeLast=0;collapsible=1;marginBottom=0;whiteSpace=wrap;html=1;" parent="1" vertex="1">
          <mxGeometry x="-835" y="910" width="410" height="160" as="geometry" />
        </mxCell>
        <mxCell id="EzwCkaY9uYodPQmVns6a-18" value="&lt;div&gt;&lt;span style=&quot;background-color: initial;&quot;&gt;+ Duration: int&lt;/span&gt;&lt;/div&gt;&lt;div&gt;+ episodeTitle: String&lt;/div&gt;&lt;div&gt;+ episodeNumber: int&lt;/div&gt;&lt;div&gt;+ releaseDate: Date&lt;/div&gt;" style="text;strokeColor=none;fillColor=none;align=left;verticalAlign=top;spacingLeft=4;spacingRight=4;overflow=hidden;rotatable=0;points=[[0,0.5],[1,0.5]];portConstraint=eastwest;whiteSpace=wrap;html=1;" parent="EzwCkaY9uYodPQmVns6a-17" vertex="1">
          <mxGeometry y="26" width="410" height="74" as="geometry" />
        </mxCell>
        <mxCell id="EzwCkaY9uYodPQmVns6a-19" value="" style="line;strokeWidth=1;fillColor=none;align=left;verticalAlign=middle;spacingTop=-1;spacingLeft=3;spacingRight=3;rotatable=0;labelPosition=right;points=[];portConstraint=eastwest;strokeColor=inherit;" parent="EzwCkaY9uYodPQmVns6a-17" vertex="1">
          <mxGeometry y="100" width="410" height="8" as="geometry" />
        </mxCell>
        <mxCell id="EzwCkaY9uYodPQmVns6a-20" value="&lt;div&gt;+Episode(episodeTitle: String, episodeNumber: int, releaseDate: Date, Duration: int)&lt;/div&gt;&lt;div&gt;&lt;br&gt;&lt;/div&gt;" style="text;strokeColor=none;fillColor=none;align=left;verticalAlign=top;spacingLeft=4;spacingRight=4;overflow=hidden;rotatable=0;points=[[0,0.5],[1,0.5]];portConstraint=eastwest;whiteSpace=wrap;html=1;" parent="EzwCkaY9uYodPQmVns6a-17" vertex="1">
          <mxGeometry y="108" width="410" height="52" as="geometry" />
        </mxCell>
        <mxCell id="EzwCkaY9uYodPQmVns6a-21" value="1" style="endArrow=open;html=1;endSize=12;startArrow=diamondThin;startSize=14;startFill=1;edgeStyle=orthogonalEdgeStyle;align=left;verticalAlign=bottom;rounded=0;exitX=0.423;exitY=0.986;exitDx=0;exitDy=0;exitPerimeter=0;entryX=1.003;entryY=0.372;entryDx=0;entryDy=0;entryPerimeter=0;" parent="1" source="EzwCkaY9uYodPQmVns6a-9" target="EzwCkaY9uYodPQmVns6a-20" edge="1">
          <mxGeometry x="-1" y="3" relative="1" as="geometry">
            <mxPoint x="-280" y="1030" as="sourcePoint" />
            <mxPoint x="-400" y="1040" as="targetPoint" />
            <Array as="points">
              <mxPoint x="-280" y="1020" />
              <mxPoint x="-400" y="1020" />
              <mxPoint x="-400" y="1037" />
            </Array>
          </mxGeometry>
        </mxCell>
        <mxCell id="EzwCkaY9uYodPQmVns6a-23" value="" style="endArrow=none;html=1;rounded=0;exitX=0.532;exitY=1.017;exitDx=0;exitDy=0;exitPerimeter=0;" parent="1" edge="1">
          <mxGeometry width="50" height="50" relative="1" as="geometry">
            <mxPoint x="520.0000000000001" y="500.0039999999999" as="sourcePoint" />
            <mxPoint x="520" y="680" as="targetPoint" />
          </mxGeometry>
        </mxCell>
        <mxCell id="EzwCkaY9uYodPQmVns6a-24" value="" style="endArrow=none;html=1;rounded=0;" parent="1" edge="1">
          <mxGeometry width="50" height="50" relative="1" as="geometry">
            <mxPoint x="520" y="680" as="sourcePoint" />
            <mxPoint x="580" y="680" as="targetPoint" />
          </mxGeometry>
        </mxCell>
        <mxCell id="EzwCkaY9uYodPQmVns6a-25" value="" style="endArrow=none;html=1;rounded=0;" parent="1" edge="1">
          <mxGeometry width="50" height="50" relative="1" as="geometry">
            <mxPoint x="310" y="570" as="sourcePoint" />
            <mxPoint x="520" y="570" as="targetPoint" />
          </mxGeometry>
        </mxCell>
        <mxCell id="EzwCkaY9uYodPQmVns6a-26" value="" style="endArrow=classic;html=1;rounded=0;entryX=0.5;entryY=0;entryDx=0;entryDy=0;" parent="1" target="7Ozxp1BlVFNVMCUP24Y6-16" edge="1">
          <mxGeometry width="50" height="50" relative="1" as="geometry">
            <mxPoint x="310" y="570" as="sourcePoint" />
            <mxPoint x="320" y="580" as="targetPoint" />
          </mxGeometry>
        </mxCell>
        <mxCell id="EzwCkaY9uYodPQmVns6a-28" value="1" style="endArrow=open;html=1;endSize=12;startArrow=diamondThin;startSize=14;startFill=1;edgeStyle=orthogonalEdgeStyle;align=left;verticalAlign=bottom;rounded=0;exitX=1.007;exitY=0.707;exitDx=0;exitDy=0;exitPerimeter=0;entryX=-0.014;entryY=0.352;entryDx=0;entryDy=0;entryPerimeter=0;" parent="1" source="EzwCkaY9uYodPQmVns6a-2" target="7Ozxp1BlVFNVMCUP24Y6-2" edge="1">
          <mxGeometry x="-1" y="3" relative="1" as="geometry">
            <mxPoint x="150" y="280" as="sourcePoint" />
            <mxPoint x="-60" y="390" as="targetPoint" />
            <Array as="points">
              <mxPoint x="-220" y="404" />
            </Array>
          </mxGeometry>
        </mxCell>
        <mxCell id="EzwCkaY9uYodPQmVns6a-29" value="1" style="endArrow=open;html=1;endSize=12;startArrow=diamondThin;startSize=14;startFill=1;edgeStyle=orthogonalEdgeStyle;align=left;verticalAlign=bottom;rounded=0;exitX=1.002;exitY=0.63;exitDx=0;exitDy=0;exitPerimeter=0;entryX=0.378;entryY=-0.007;entryDx=0;entryDy=0;entryPerimeter=0;" parent="1" source="EzwCkaY9uYodPQmVns6a-11" target="7Ozxp1BlVFNVMCUP24Y6-5" edge="1">
          <mxGeometry x="-1" y="3" relative="1" as="geometry">
            <mxPoint x="-227" y="414" as="sourcePoint" />
            <mxPoint x="10" y="730" as="targetPoint" />
            <Array as="points">
              <mxPoint x="-100" y="536" />
              <mxPoint x="-100" y="740" />
              <mxPoint x="11" y="740" />
            </Array>
          </mxGeometry>
        </mxCell>
      </root>
    </mxGraphModel>
  </diagram>
</mxfile>
